<svg width="729" height="517" viewBox="0 0 729 517" fill="none" xmlns="http://www.w3.org/2000/svg">
<g opacity="0.5" clip-path="url(#clip0)">
<path opacity="0.1" d="M576.584 443.643C659.201 443.643 726.176 430.615 726.176 414.544C726.176 398.472 659.201 385.444 576.584 385.444C493.966 385.444 426.992 398.472 426.992 414.544C426.992 430.615 493.966 443.643 576.584 443.643Z" fill="#6C63FF"/>
<g opacity="0.5">
<path opacity="0.5" d="M448.451 73.3573C446.434 73.9311 443.964 75.4257 442.746 79.5129C440.361 87.5244 445.903 92.9717 444.077 101.323C443.57 103.539 442.606 105.623 441.246 107.443C439.016 110.468 436.596 111.899 434.246 114.017C431.266 116.723 429.13 120.233 428.096 124.125C426.963 128.421 426.868 132.925 427.82 137.265C428.655 140.892 430.077 143.534 431.323 146.474C432.872 150.223 434.082 154.104 434.94 158.069C435.41 160.001 435.676 161.976 435.732 163.963C435.697 166.603 435.461 169.236 435.025 171.84L431.634 195.513C431.12 198.608 430.81 201.734 430.707 204.871C430.752 208.014 431.114 211.144 431.79 214.214C432.979 220.476 434.26 226.964 436.985 230.279C439.71 233.594 444.353 232.404 447.205 225.696C449.916 219.278 449.98 210.714 452.372 203.858C456.144 193.055 463.639 191.603 467.801 181.296C471.793 171.379 470.568 159.281 472.593 148.004C474.008 139.921 477.129 132.555 478.962 124.571C481.595 113.075 481.333 101.139 479.231 92.2987C477.633 85.0351 474.174 78.3124 469.195 72.7906C467.433 70.8426 465.543 69.1072 463.328 68.9301C460.971 68.7459 458.912 71.7139 456.583 72.6064C453.894 73.6619 451.19 72.5781 448.451 73.3573Z" fill="#6C63FF"/>
<path opacity="0.5" d="M461.212 69.5322C461.212 69.5322 457.22 171.776 440.432 232.064" stroke="#535461" stroke-width="2" stroke-miterlimit="10"/>
<path opacity="0.5" d="M442.647 79.9946C442.647 79.9946 460.589 96.3435 457.185 127.454" stroke="#535461" stroke-width="2" stroke-miterlimit="10"/>
<path opacity="0.5" d="M427.593 126.519C427.593 126.519 457.043 132.448 454.856 150.079" stroke="#535461" stroke-width="2" stroke-miterlimit="10"/>
<path opacity="0.5" d="M479.281 92.0862C479.281 92.0862 467.362 102.527 456.746 132.101" stroke="#535461" stroke-width="2" stroke-miterlimit="10"/>
<path opacity="0.5" d="M467.638 181.466C467.638 181.466 459.506 187.842 452.98 165.521" stroke="#535461" stroke-width="2" stroke-miterlimit="10"/>
<path opacity="0.5" d="M432.548 194.507C432.548 194.507 449.13 192.34 450.659 181.948" stroke="#535461" stroke-width="2" stroke-miterlimit="10"/>
</g>
<path d="M488.539 4.78137C484.434 5.39055 479.493 7.29603 477.462 13.1683C473.477 24.6861 485.587 33.406 482.799 45.4409C481.967 48.7529 480.215 51.7614 477.745 54.1183C473.499 58.3047 468.643 60.1322 464.043 62.9727C459.443 65.8132 454.665 70.283 452.507 77.1398C450.433 83.7346 451.332 91.0165 453.49 96.4567C455.649 101.897 458.912 105.956 461.828 110.433C465.371 115.943 468.334 121.806 470.668 127.929C471.845 130.72 472.635 133.658 473.017 136.663C473.393 140.346 472.918 144.306 472.444 148.181L468.233 182.706C467.674 187.296 467.108 191.957 467.426 196.377C467.787 201.47 469.295 205.919 470.781 210.261C473.98 219.625 477.405 229.387 483.443 234.543C489.48 239.7 498.95 238.595 504.053 229.004C508.908 219.873 508.016 207.272 512.156 197.461C518.682 181.998 534.026 180.744 541.408 166.067C548.486 151.985 544.529 133.971 547.375 117.608C549.413 105.885 554.933 95.4012 557.765 83.8621C561.848 67.237 559.888 49.6344 554.495 36.4023C549.102 23.1703 540.573 13.735 531.422 6.48851C527.543 3.40716 523.431 0.623326 518.824 0.113311C513.926 -0.432123 510.012 3.6905 505.305 4.73178C499.827 5.87223 494.109 3.95259 488.539 4.78137Z" fill="#6C63FF"/>
<path d="M514.499 0.658813C514.499 0.658813 518.364 150.752 490.747 237.547" stroke="#535461" stroke-width="2" stroke-miterlimit="10"/>
<path d="M477.306 13.8909C477.306 13.8909 516.375 40.1 513.027 85.5481" stroke="#535461" stroke-width="2" stroke-miterlimit="10"/>
<path d="M451.664 80.5967C451.664 80.5967 513.324 92.8229 510.889 118.522" stroke="#535461" stroke-width="2" stroke-miterlimit="10"/>
<path d="M554.565 36.0199C554.565 36.0199 531.131 49.9816 512.673 92.2704" stroke="#535461" stroke-width="2" stroke-miterlimit="10"/>
<path d="M541.04 166.265C541.04 166.265 524.974 174.765 508.816 141.041" stroke="#535461" stroke-width="2" stroke-miterlimit="10"/>
<path d="M469.96 181.289C469.96 181.289 504.024 180.064 505.963 164.94" stroke="#535461" stroke-width="2" stroke-miterlimit="10"/>
<path d="M47.5968 409.847C47.5968 409.847 53.5278 417.639 44.8577 429.327C36.1877 441.015 29.0251 450.946 31.934 458.256C31.934 458.256 45.0134 436.488 55.6581 436.184C66.3029 435.879 59.3102 422.938 47.5968 409.847Z" fill="#6C63FF"/>
<path opacity="0.1" d="M47.597 409.847C48.1262 410.596 48.5457 411.416 48.8426 412.284C59.2325 424.496 64.7601 435.893 54.7807 436.184C45.4807 436.453 34.3265 453.092 31.6511 457.3C31.7394 457.624 31.8457 457.944 31.9696 458.256C31.9696 458.256 45.049 436.488 55.6937 436.184C66.3384 435.879 59.3104 422.938 47.597 409.847Z" fill="black"/>
<path d="M58.6238 419.743C58.6238 422.477 58.3194 424.701 57.916 424.701C57.5126 424.701 57.2083 422.484 57.2083 419.743C57.2083 417.002 57.5904 418.326 57.9655 418.326C58.3407 418.326 58.6238 417.009 58.6238 419.743Z" fill="#FFD037"/>
<path d="M62.4103 423.001C60.011 424.312 57.9231 425.126 57.7462 424.765C57.5693 424.404 59.3599 423.1 61.7592 421.797C64.1585 420.494 63.2101 421.443 63.3941 421.797C63.5781 422.151 64.8026 421.691 62.4103 423.001Z" fill="#FFD037"/>
<path d="M16.2855 409.847C16.2855 409.847 10.3544 417.639 19.0245 429.327C27.6946 441.015 34.843 450.939 31.9482 458.249C31.9482 458.249 18.8688 436.481 8.22409 436.177C-2.42063 435.872 4.55789 422.938 16.2855 409.847Z" fill="#6C63FF"/>
<path opacity="0.1" d="M16.2855 409.847C15.7686 410.598 15.3611 411.418 15.0752 412.284C4.68529 424.496 -0.84232 435.893 9.1371 436.184C18.4371 436.453 29.5914 453.092 32.2667 457.3C32.1784 457.624 32.0721 457.944 31.9482 458.256C31.9482 458.256 18.8688 436.488 8.22409 436.184C-2.42063 435.879 4.55789 422.938 16.2855 409.847Z" fill="black"/>
<path d="M5.24463 419.743C5.24463 422.477 5.54897 424.701 5.95239 424.701C6.35581 424.701 6.66015 422.484 6.66015 419.743C6.66015 417.002 6.27796 418.326 5.90285 418.326C5.52773 418.326 5.24463 417.009 5.24463 419.743Z" fill="#FFD037"/>
<path d="M1.45808 423.001C3.85739 424.312 5.94528 425.126 6.12222 424.765C6.29916 424.404 4.50853 423.1 2.10922 421.797C-0.290085 420.494 0.658315 421.443 0.474298 421.797C0.29028 422.151 -0.934145 421.691 1.45808 423.001Z" fill="#FFD037"/>
<path d="M7.13428 457.236C7.13428 457.236 23.7171 456.726 28.7139 453.163C33.7107 449.6 54.1933 445.371 55.4601 451.038C56.727 456.705 80.3804 479.45 61.6601 479.599C42.9399 479.748 18.1612 476.68 13.1715 473.642C8.18176 470.603 7.13428 457.236 7.13428 457.236Z" fill="#A8A8A8"/>
<path opacity="0.2" d="M61.9928 477.63C43.2725 477.778 18.4938 474.711 13.5041 471.672C9.70345 469.356 8.18884 461.047 7.68633 457.215H7.13428C7.13428 457.215 8.18176 470.603 13.1715 473.642C18.1612 476.68 42.9399 479.755 61.6601 479.599C67.0674 479.556 68.9288 477.63 68.8297 474.782C68.0795 476.525 66.0199 477.601 61.9928 477.63Z" fill="black"/>
<path d="M695.275 406.624C696.572 405.566 697.518 404.138 697.986 402.53C698.34 400.901 697.646 398.953 696.089 398.358C694.348 397.692 692.487 398.896 691.078 400.121C689.67 401.347 688.049 402.735 686.202 402.473C687.151 401.612 687.862 400.519 688.263 399.301C688.665 398.083 688.745 396.782 688.495 395.524C688.415 395.003 688.195 394.513 687.858 394.107C686.888 393.073 685.14 393.52 683.979 394.334C680.299 396.927 679.273 401.928 679.252 406.433C678.884 404.811 679.195 403.118 679.181 401.474C679.167 399.831 678.714 397.933 677.312 397.068C676.443 396.601 675.467 396.369 674.481 396.395C672.825 396.332 670.985 396.502 669.853 397.713C668.437 399.215 668.812 401.744 670.037 403.38C671.261 405.016 673.115 406.072 674.828 407.219C676.201 408.036 677.372 409.152 678.254 410.485C678.357 410.669 678.443 410.864 678.508 411.066H688.877C691.2 409.881 693.353 408.387 695.275 406.624Z" fill="#6C63FF"/>
<path opacity="0.1" d="M103.85 340.237C126.371 368.897 117.623 410.768 103.312 444.294C98.5203 455.522 93.0988 467.401 95.123 479.436C97.5931 494.156 110.694 504.937 124.509 510.604C149.635 521.002 179.715 518.523 202.795 504.15C222.746 491.726 237.036 471.524 257.327 459.666C291.3 439.832 334.516 447.319 371.39 460.983C397.478 470.652 426.001 483.233 451.926 473.124C470.165 466.041 482.777 448.708 489.65 430.361C492.969 421.5 495.376 411.944 501.682 404.86C505.447 400.688 510.359 397.72 515.398 395.227C561.402 372.411 619.439 384.601 664.084 359.327C694.242 342.242 713.55 310.005 722.121 276.393C730.692 242.782 729.672 207.534 727.5 172.924C725.957 148.322 723.189 122.064 707.484 103.073C690.873 82.9909 662.357 75.5178 636.588 79.3358C610.818 83.1538 587.448 96.8251 566.923 112.848C541.238 132.873 517.422 157.814 485.884 165.932C464.411 171.457 441.819 168.433 419.666 167.391C382.636 165.642 345.599 169.516 308.775 173.767C273.521 177.847 237.999 182.338 204.429 193.813C180.663 201.938 161.61 216.679 139.167 226.978C124.538 233.693 108.585 235.549 94.7408 244.099C77.6767 254.632 62.0423 272.958 66.4304 294.392C70.5496 314.8 91.8886 325.029 103.85 340.237Z" fill="#6C63FF"/>
<path opacity="0.1" d="M390.931 340.223C558.101 340.223 693.619 327.195 693.619 311.124C693.619 295.053 558.101 282.024 390.931 282.024C223.762 282.024 88.2437 295.053 88.2437 311.124C88.2437 327.195 223.762 340.223 390.931 340.223Z" fill="#6C63FF"/>
<path opacity="0.1" d="M158.297 508.103C240.915 508.103 307.89 495.075 307.89 479.004C307.89 462.933 240.915 449.905 158.297 449.905C75.68 449.905 8.70532 462.933 8.70532 479.004C8.70532 495.075 75.68 508.103 158.297 508.103Z" fill="#6C63FF"/>
<path d="M311.216 302.05L308.845 305.499C308.845 305.499 311.429 308.949 311.676 309.381C311.924 309.813 319.214 309.169 319.214 309.169L319.858 306.583L318.782 303.566L311.216 302.05Z" fill="#E6E6F0"/>
<path d="M231.501 300.109L226.759 300.966L229.774 306.796L233.009 308.517L236.024 310.67L236.887 308.304L234.729 303.771L231.501 300.109Z" fill="#FDC2CC"/>
<path d="M309.065 244.042C309.065 244.042 334.275 250.078 339.01 256.793C339.01 256.793 343.32 260.462 339.01 267.142C334.7 273.822 328.67 288.924 328.67 288.924C328.67 288.924 324.359 303.587 322.639 304.663C320.92 305.74 311.004 306.604 310.14 302.538C310.14 302.538 315.739 293.698 315.739 289.597C315.739 285.495 325.003 266.094 325.003 266.094C325.003 266.094 303.891 263.721 297.21 265.229C290.528 266.738 300.232 241.669 309.065 244.042Z" fill="#565171"/>
<path opacity="0.1" d="M309.065 244.042C309.065 244.042 334.275 250.078 339.01 256.793C339.01 256.793 343.32 260.462 339.01 267.142C334.7 273.822 328.67 288.924 328.67 288.924C328.67 288.924 324.359 303.587 322.639 304.663C320.92 305.74 311.004 306.604 310.14 302.538C310.14 302.538 315.739 293.698 315.739 289.597C315.739 285.495 325.003 266.094 325.003 266.094C325.003 266.094 303.891 263.721 297.21 265.229C290.528 266.738 300.232 241.669 309.065 244.042Z" fill="black"/>
<path d="M303.891 249.865C303.841 251.119 303.707 252.529 303.516 254.044C302.136 265.024 297.641 281.352 297.641 281.352C297.641 281.352 293.119 291.056 291.824 297.311C290.528 303.566 281.695 305.103 281.695 305.103C281.695 305.103 257.561 307.936 252.607 306.831C247.652 305.726 239.867 310.068 236.017 309.417C232.166 308.765 229.767 299.712 229.767 299.712C236.449 299.751 243.063 298.355 249.16 295.618C259.068 291.091 273.294 293.245 273.294 293.245C274.355 292.936 275.342 292.414 276.194 291.71C277.046 291.006 277.745 290.135 278.249 289.15C279.756 285.913 279.756 266.292 279.324 264.996C276.493 256.495 276.727 251.041 277.541 247.86C277.813 246.471 278.426 245.172 279.324 244.078L303.891 249.865Z" fill="#565171"/>
<path opacity="0.1" d="M303.891 249.865C303.841 251.119 303.707 252.529 303.516 254.044C301.35 254.214 295.277 254.377 290.776 251.594C286.53 248.987 280.351 248.101 277.569 247.825C277.842 246.436 278.455 245.136 279.353 244.042L303.891 249.865Z" fill="black"/>
<path d="M306.871 247.166C305.866 250 304.323 253.322 304.323 253.322C304.323 253.322 296.353 254.399 290.748 250.949C285.142 247.499 276.097 247.067 276.097 247.067C277.562 246.167 278.553 243.433 279.169 241.039C279.513 239.685 279.782 238.314 279.976 236.931C279.976 236.931 306.474 242.321 307.578 243.185C307.989 243.525 307.55 245.24 306.871 247.166Z" fill="#E6E6F0"/>
<path d="M354.092 156.277L321.953 175.693L318.761 177.62V168.135L320.976 167.073L348.062 154.117C348.062 154.117 349.357 130.614 352.804 134.283C356.251 137.952 354.092 156.277 354.092 156.277Z" fill="#FDC2CC"/>
<path opacity="0.1" d="M321.953 175.693L318.761 177.62V168.135L320.976 167.073C321.123 169.964 321.449 172.843 321.953 175.693Z" fill="black"/>
<path d="M297.217 179.164L320.269 165.798C320.269 165.798 320.7 178.739 323.284 180.673C323.284 180.673 313.807 183.506 310.14 189.513L297.217 179.164Z" fill="#B45181"/>
<path opacity="0.1" d="M297.217 179.164L320.269 165.798C320.269 165.798 320.7 178.739 323.284 180.673C323.284 180.673 313.807 183.506 310.14 189.513L297.217 179.164Z" fill="black"/>
<path d="M353.887 190.562C353.887 190.562 342.924 195.343 335.662 197.1C334.028 197.593 332.319 197.79 330.616 197.681C325.662 196.816 331.911 190.597 331.911 190.597L334.516 190.193L348.501 188.012C348.501 188.012 350.009 166.449 352.592 168.178C355.175 169.906 353.887 190.562 353.887 190.562Z" fill="#FDC2CC"/>
<path d="M307.557 171.153C307.557 171.153 298.293 178.052 301.739 186.68C305.186 195.308 283.854 181.502 283.854 181.502C283.854 181.502 290.748 171.153 292.255 163.389C293.763 155.626 307.557 171.153 307.557 171.153Z" fill="#FDC2CC"/>
<path opacity="0.1" d="M306.871 247.166C302.864 245.656 298.676 244.679 294.414 244.262C288.186 243.554 282.481 242.357 279.176 241.039C279.52 239.685 279.789 238.314 279.983 236.931C279.983 236.931 306.481 242.321 307.586 243.185C307.989 243.525 307.55 245.24 306.871 247.166Z" fill="black"/>
<path opacity="0.1" d="M335.655 197.1C334.021 197.593 332.312 197.79 330.609 197.681C325.655 196.816 331.904 190.597 331.904 190.597L334.509 190.193C335.599 191.872 336.71 194.493 335.655 197.1Z" fill="black"/>
<path d="M292.475 175.035C292.475 175.035 284.074 174.822 281.059 178.272C278.044 181.721 278.688 191.022 278.688 191.022C278.688 191.022 278.058 209.645 282.779 220.065C282.934 220.401 282.952 220.785 282.828 221.134C282.779 221.262 282.779 221.184 282.779 221.184C282.779 221.184 279.763 234.77 276.748 237.143C273.733 239.516 283.21 242.321 294.442 243.61C305.675 244.9 310.169 248.137 310.169 248.137C310.169 248.137 312.108 246.012 312.292 241.237C312.476 236.463 309.298 201.775 309.298 201.775C309.298 201.775 321.146 204.793 328.259 201.13C328.259 201.13 331.494 202.859 334.509 198.113C337.524 193.367 332.385 188.196 332.385 188.196C332.385 188.196 327.643 192.942 314.5 186.687C301.357 180.432 296.559 174.822 292.475 175.035Z" fill="#B45181"/>
<path d="M228.055 300.541H225.471V304.21L228.055 310.033C228.055 310.033 231.501 310.677 231.721 310.677C231.94 310.677 234.736 310.033 234.736 310.033L235.599 308.524C235.599 308.524 226.115 304.848 228.055 300.541Z" fill="#E6E6F0"/>
<path d="M309.065 303.991L305.186 312.618L321.564 320.41L334.495 320.842C334.495 320.842 335.57 317.825 331.26 316.316L327.813 315.671C327.813 315.671 323.291 307.476 322.859 303.629C322.859 303.629 318.549 304.494 317.905 307.724C317.898 307.653 311.868 310.67 309.065 303.991Z" fill="#B45181"/>
<path d="M226.115 299.677L224.799 300.753L219.009 305.499L232.365 323.208C232.365 323.208 239.902 326.445 243.356 323.208C243.356 323.208 245.479 321.083 240.773 319.326C240.773 319.326 237.107 319.971 237.107 316.309C237.107 312.647 237.97 308.765 239.23 307.901C239.23 307.901 235.996 306.824 235.139 307.688C234.48 308.415 233.901 309.21 233.412 310.061C233.412 310.061 225.683 307.008 226.115 299.677Z" fill="#B45181"/>
<path opacity="0.1" d="M291.831 163.821C291.612 164.915 291.324 165.994 290.967 167.051C292.086 169.746 294.211 171.898 296.89 173.05C299.568 174.202 302.59 174.263 305.314 173.221C305.882 172.635 306.489 172.088 307.133 171.585C307.133 171.585 293.338 156.058 291.831 163.821Z" fill="black"/>
<path opacity="0.1" d="M290.642 192.623C290.642 192.623 297.323 201.463 307.019 201.683Z" fill="black"/>
<g opacity="0.1">
<path opacity="0.1" d="M330.573 201.279C330.437 201.241 330.305 201.191 330.177 201.13C329.969 201.239 329.757 201.341 329.54 201.435C329.89 201.428 330.237 201.376 330.573 201.279Z" fill="black"/>
<path opacity="0.1" d="M332.867 189.081C332.632 188.78 332.382 188.491 332.116 188.217C332.116 188.217 330.701 189.634 327.205 189.903C329.131 190.094 331.074 189.812 332.867 189.081V189.081Z" fill="black"/>
<path opacity="0.1" d="M311.216 201.775L311.259 202.235C314.101 202.762 316.989 203 319.879 202.944C316.961 202.837 314.059 202.446 311.216 201.775V201.775Z" fill="black"/>
<path opacity="0.1" d="M296.353 243.625C285.149 242.328 275.673 239.53 278.659 237.157C281.646 234.784 284.689 221.198 284.689 221.198C284.689 221.198 284.689 221.276 284.739 221.148C284.863 220.799 284.845 220.415 284.689 220.079C279.969 209.631 280.599 191.036 280.599 191.036C280.599 191.036 279.954 181.764 282.97 178.286C285.213 175.715 290.443 175.183 292.97 175.077C292.735 175.059 292.498 175.059 292.262 175.077C292.262 175.077 283.861 174.865 280.846 178.314C277.831 181.764 278.475 191.065 278.475 191.065C278.475 191.065 277.845 209.687 282.566 220.107C282.722 220.444 282.74 220.828 282.616 221.177C282.566 221.304 282.566 221.226 282.566 221.226C282.566 221.226 279.572 234.77 276.529 237.143C273.486 239.516 282.991 242.321 294.223 243.61C305.455 244.9 309.949 248.137 309.949 248.137C310.175 247.866 310.374 247.574 310.544 247.266C308.357 246.21 303.856 244.475 296.353 243.625Z" fill="black"/>
</g>
<path d="M301.739 173.526C307.927 173.526 312.943 168.505 312.943 162.312C312.943 156.12 307.927 151.099 301.739 151.099C295.552 151.099 290.536 156.12 290.536 162.312C290.536 168.505 295.552 173.526 301.739 173.526Z" fill="#FDC2CC"/>
<path opacity="0.1" d="M317.685 157.297C316.758 159.621 313.991 160.499 311.563 161.101C308.095 161.951 304.358 162.787 301.039 161.47C300.609 161.228 300.112 161.131 299.623 161.193C299.229 161.352 298.9 161.639 298.689 162.008C295.03 167.221 295.624 174.17 294.676 180.475C294.379 182.437 293.876 184.463 292.553 185.929C289.976 188.762 285.114 188.656 282.743 191.667C281.179 193.65 281.165 196.406 281.179 198.934C281.179 201.631 281.155 204.33 281.108 207.031C281.066 208.802 280.981 210.636 280.181 212.209C278.822 214.872 275.793 216.14 272.997 217.168C271.256 217.819 269.458 218.478 267.59 218.301C265.722 218.124 263.853 216.884 263.612 215.014C263.28 212.478 265.891 210.707 267.689 208.88C270.563 205.968 271.745 201.732 271.851 197.638C271.952 195.985 271.711 194.328 271.143 192.772C270.485 191.164 269.31 189.811 268.602 188.224C266.422 183.336 269.112 177.684 272.332 173.405C275.552 169.127 279.509 164.955 280.195 159.649C280.255 158.501 280.419 157.361 280.684 156.242C281.179 154.698 282.354 150.433 283.649 149.456C285.723 147.893 288.157 146.879 290.727 146.509C292.715 146.219 294.747 146.325 296.721 145.942C299.029 145.496 301.173 144.398 303.481 143.987C308.47 143.102 313.885 148.903 316.072 153.479C316.673 154.882 318.251 155.874 317.685 157.297Z" fill="black"/>
<path d="M317.685 156.865C316.758 159.189 313.991 160.067 311.563 160.669C308.095 161.519 304.358 162.355 301.039 161.037C300.609 160.796 300.112 160.699 299.623 160.761C299.229 160.919 298.9 161.207 298.689 161.576C295.03 166.789 295.624 173.738 294.676 180.043C294.379 182.005 293.876 184.031 292.553 185.497C289.976 188.33 285.114 188.224 282.743 191.235C281.179 193.218 281.165 195.973 281.179 198.502C281.179 201.199 281.155 203.898 281.108 206.599C281.066 208.37 280.981 210.204 280.181 211.777C278.822 214.44 275.793 215.708 272.997 216.735C271.256 217.387 269.458 218.046 267.59 217.869C265.722 217.692 263.853 216.452 263.612 214.582C263.28 212.046 265.891 210.275 267.689 208.448C270.563 205.536 271.745 201.3 271.851 197.206C271.952 195.552 271.711 193.896 271.143 192.34C270.485 190.732 269.31 189.379 268.602 187.792C266.422 182.904 269.112 177.252 272.332 172.973C275.552 168.695 279.509 164.523 280.195 159.217C280.255 158.069 280.419 156.928 280.684 155.81C281.179 154.266 282.354 150.001 283.649 149.024C285.723 147.46 288.157 146.447 290.727 146.077C292.715 145.787 294.747 145.893 296.721 145.51C299.029 145.064 301.173 143.966 303.481 143.555C308.47 142.67 313.885 148.471 316.072 153.047C316.673 154.45 318.251 155.441 317.685 156.865Z" fill="#F569BC"/>
<path d="M353.887 135.31H540.148V321.714H353.887V135.31Z" fill="#F7DF1E"/>
<path d="M402.871 291.084L417.126 282.449C419.879 287.33 422.377 291.46 428.379 291.46C434.133 291.46 437.757 289.207 437.757 280.452V220.886H455.26V280.693C455.26 298.834 444.643 307.093 429.129 307.093C415.13 307.093 407.005 299.833 402.878 291.077L402.871 291.084ZM464.765 289.2L479.012 280.941C482.763 287.075 487.64 291.566 496.267 291.566C503.522 291.566 508.144 287.939 508.144 282.931C508.144 276.924 503.395 274.799 495.404 271.293L491.03 269.416C478.404 264.039 470.024 257.282 470.024 243.015C470.024 229.875 480.024 219.866 495.652 219.866C506.778 219.866 514.761 223.748 520.529 233.878L506.905 242.64C503.904 237.256 500.655 235.131 495.652 235.131C490.527 235.131 487.272 238.383 487.272 242.64C487.272 247.896 490.52 250.021 498.023 253.265L502.397 255.142C517.26 261.518 525.654 268.027 525.654 282.669C525.654 298.437 513.275 307.072 496.635 307.072C480.357 307.072 469.882 299.28 464.786 289.179" fill="black"/>
<path d="M621.852 425.162C621.852 425.162 614.583 425.672 610.096 417.88C609.219 416.311 608.183 414.837 607.003 413.481C605.555 411.104 604.802 408.367 604.831 405.583C605.078 399.81 599.062 368.189 599.062 368.189C599.062 368.189 599.812 356.147 593.797 348.617C589.833 343.658 584.136 329.491 580.703 320.339C580.933 320.545 581.21 320.691 581.51 320.764L581.368 319.978H581.51L579.733 310.21C577.147 307.234 574.967 303.928 573.25 300.378L573.654 300.293L578.976 299.174C578.976 299.174 587.625 286.87 588.177 280.82H588.885H589.883C597.888 280.776 605.89 281.195 613.847 282.074V282.074C613.847 282.039 613.791 281.883 613.72 281.635C613.383 280.418 613.123 279.18 612.941 277.93H613.437L618.391 277.604C618.391 277.604 635.441 258.535 629.17 255.022C622.9 251.509 616.381 270.832 616.381 270.832L614.258 271.215L613.685 271.321C613.741 271.236 613.798 271.158 613.862 271.08C613.925 271.003 586.032 269.834 581.736 263.048C581.736 263.048 569.45 253.258 568.947 246.756C568.857 245.406 568.397 244.108 567.618 243.004C566.839 241.899 565.771 241.031 564.531 240.494C563.013 239.768 561.332 239.453 559.654 239.58L553.9 239.977L554.304 240.685H554.141C553.78 239.857 553.477 239.005 553.235 238.135H553.355C553.313 237.958 553.277 237.781 553.242 237.604C555.005 237.187 556.667 236.421 558.13 235.35C559.592 234.28 560.824 232.926 561.754 231.37C562.684 229.813 563.292 228.086 563.543 226.29C563.794 224.494 563.682 222.667 563.214 220.915C563.777 220.987 564.348 220.97 564.906 220.865C567.029 220.433 568.522 218.28 568.579 216.126C568.579 215.985 568.579 215.843 568.579 215.708C568.579 215.708 568.579 215.652 568.579 215.623C568.558 214.541 568.296 213.478 567.812 212.509C567.329 211.541 566.636 210.694 565.783 210.027C564.637 209.071 563.264 208.391 562.245 207.328C561.006 206.061 560.327 204.36 559.364 202.866C557.752 200.393 555.36 198.531 552.57 197.574C550.496 196.866 547.948 196.795 546.355 198.283C545.534 199.055 545.06 200.174 544.14 200.826C542.817 201.775 541.019 201.492 539.398 201.683C537.93 201.909 536.541 202.493 535.352 203.384C534.164 204.274 533.212 205.444 532.582 206.79C531.788 208.475 531.405 210.325 531.464 212.188C531.447 213.466 531.599 214.74 531.917 215.977C532.228 217.21 532.689 218.4 533.028 219.633C533.736 222.183 533.899 224.867 534.713 227.382C535.26 229.248 536.351 230.909 537.848 232.149L537.608 233.183C537.452 233.183 533.545 234.055 530.848 239.955C528.725 244.609 521.499 249.412 518.321 251.353C517.728 251.716 517.214 252.193 516.808 252.758C516.402 253.322 516.113 253.962 515.957 254.639C515.652 256.008 515.516 257.41 515.554 258.812C515.497 261.836 516.127 266.023 518.555 271.328C524.068 283.37 528.081 288.641 528.081 288.641C528.081 288.641 528.385 292.331 528.407 296.22C528.407 299.117 528.194 302 527.579 303.445C527.055 304.664 526.871 307.773 526.913 311.329C526.913 318.144 527.579 327.033 527.579 327.033C527.579 327.033 529.497 327.402 532.462 327.834L534.309 360.361C534.542 364.301 533.277 368.182 530.771 371.228C529.475 372.829 527.979 374.258 526.319 375.478C521.053 379.239 509.771 418.893 509.771 418.893C509.771 418.893 510.323 418.893 511.229 418.999L507.761 428.682C507.761 428.682 521.619 439.308 530.049 436.403C530.962 436.106 531.92 435.971 532.88 436.007C534.543 436.007 538.103 434.689 536.121 432.954C532.294 429.427 528.685 425.67 525.314 421.705C525.585 421.838 525.845 421.992 526.092 422.165V422.088L526.213 422.165C526.213 422.165 526.213 421.776 526.305 421.138L526.184 421.096C526.439 418.489 527.246 411.887 528.845 411.122C530.848 410.116 545.648 380.755 545.648 380.755L560.44 342.61C560.44 342.61 572.224 362.94 582.253 366.446V374.947C582.253 374.947 587.766 400.044 589.776 402.799C591.787 405.555 589.776 416.598 589.776 416.598C590.173 417.052 590.628 417.452 591.128 417.788L589.522 426.883C589.522 426.883 601.058 426.38 620.614 432.401C620.599 432.437 628.123 429.178 621.852 425.162ZM575.72 293.918L573.279 294.527L572.797 294.647C572.748 294.343 572.712 294.166 572.712 294.166C572.152 294.419 571.55 294.565 570.936 294.598C570.07 291.854 569.571 289.008 569.45 286.133C568.628 282.692 568.128 279.183 567.956 275.649C567.956 273.822 568.261 272.228 568.947 271.328L569.761 271.392L570.327 271.93L570.37 271.966L570.66 272.228L570.964 272.497L571.014 272.54L571.339 272.83L571.396 272.88L571.729 273.163L572.104 273.475L572.189 273.545L572.585 273.864L572.974 274.176L573.066 274.247L573.498 274.573L573.59 274.636L574.001 274.941L574.071 274.991L574.538 275.323L574.652 275.401L575.147 275.741H575.19L575.671 276.06L575.784 276.138L576.301 276.471L576.414 276.542L576.895 276.839L576.987 276.896L577.539 277.222L577.674 277.3L578.247 277.619H578.29L578.849 277.916L578.983 277.987L579.578 278.284L579.698 278.341L580.25 278.596L580.356 278.646L580.979 278.915L581.128 278.979L581.772 279.241C577.773 283.647 575.72 293.918 575.72 293.918Z" fill="url(#paint0_linear)"/>
<path d="M513.876 413.035L509.226 426.019C509.226 426.019 521.966 435.794 530.247 433.768C531.494 433.458 532.766 433.251 534.048 433.152C535.76 433.025 538.712 431.771 536.879 430.184C531.004 425.041 523.169 415.486 523.169 415.486L513.876 413.035Z" fill="#4F4D59"/>
<path d="M591.228 411.809L589.026 424.305C589.026 424.305 600.287 423.816 619.382 429.695C619.382 429.695 626.729 426.508 620.607 422.612C620.607 422.612 613.529 423.1 609.106 415.528C604.682 407.956 602.028 408.912 602.028 408.912L591.228 411.809Z" fill="#4F4D59"/>
<path d="M532.95 321.168L535.074 359.193C535.306 363.244 533.965 367.229 531.33 370.314C530.139 371.73 528.782 372.998 527.288 374.089C522.15 377.766 511.13 416.47 511.13 416.47C511.13 416.47 523.615 417.179 527.041 419.658C527.041 419.658 527.748 409.861 529.73 408.877C531.712 407.892 546.129 379.232 546.129 379.232L560.574 341.994C560.574 341.994 572.075 361.828 581.871 365.27V373.601C581.871 373.601 587.257 398.103 589.217 400.794C591.178 403.486 589.217 414.253 589.217 414.253C589.217 414.253 594.879 421.337 607.817 413.764C607.817 413.764 603.656 409.11 603.903 403.472C604.151 397.833 598.241 366.97 598.241 366.97C598.241 366.97 598.949 355.212 593.103 347.845C587.257 340.478 577.539 312.335 577.539 312.335L570.801 297.828L532.95 321.168Z" fill="#C48C96"/>
<g opacity="0.1">
<path opacity="0.1" d="M513.508 416.463C513.508 416.463 524.521 377.759 529.666 374.082C531.245 372.925 532.671 371.573 533.913 370.059C536.425 367.016 537.69 363.133 537.452 359.193L535.293 321.161L571.389 298.89L570.901 297.835L533.092 321.168L535.251 359.2C535.489 363.14 534.224 367.023 531.712 370.066C530.47 371.58 529.044 372.932 527.465 374.089C522.334 377.759 511.307 416.463 511.307 416.463C511.307 416.463 523.792 417.172 527.218 419.651C527.218 419.651 527.218 419.268 527.31 418.652C522.49 416.995 513.508 416.463 513.508 416.463Z" fill="black"/>
<path opacity="0.1" d="M591.595 414.26C591.595 414.26 593.556 403.479 591.595 400.802C589.635 398.124 584.249 373.608 584.249 373.608V365.263C574.46 361.835 562.952 341.987 562.952 341.987L562.103 344.211C565.422 349.481 574.276 362.557 582.055 365.277V373.608C582.055 373.608 587.441 398.11 589.401 400.802C591.362 403.493 589.401 414.26 589.401 414.26C589.401 414.26 592.133 417.703 598.163 417.235C593.655 416.86 591.595 414.26 591.595 414.26Z" fill="black"/>
</g>
<path d="M617.174 278.539L612.368 278.858L609.834 279.028V272.901L613.161 272.299L615.221 271.923C615.221 271.923 621.59 253.06 627.705 256.488C633.821 259.917 617.174 278.539 617.174 278.539Z" fill="#714B4F"/>
<path d="M540.071 228.041C540.071 228.041 536.886 240.288 535.909 247.875C534.932 255.461 558.671 249.348 558.671 249.348C558.671 249.348 549.611 238.326 554.757 232.447L540.071 228.041Z" fill="#714B4F"/>
<path d="M565.769 279.042L566.258 283.696L558.67 283.207L551.083 276.591L543.496 255.27L538.612 247.669L534.939 243.015L536.411 237.349C536.411 237.349 537.084 237.936 538.216 238.801C541.946 241.634 550.687 247.591 557.078 245.948C557.373 245.873 557.664 245.781 557.949 245.672L567.496 262.084L565.769 279.042Z" fill="#E6E6F0"/>
<path opacity="0.1" d="M538.358 235.911C538.358 235.911 534.444 236.619 531.747 242.527C529.681 247.046 522.688 251.735 519.567 253.626C518.971 253.99 518.455 254.47 518.047 255.037C517.64 255.604 517.351 256.247 517.196 256.927C516.566 259.718 516.325 264.925 519.751 272.412C525.137 284.171 529.051 289.313 529.051 289.313C529.051 289.313 530.027 301.072 528.562 304.501C527.097 307.929 528.562 326.792 528.562 326.792C528.562 326.792 554.261 331.694 562.832 326.792C571.403 321.891 570.179 303.027 570.179 303.027C570.179 303.027 578.254 320.176 581.191 320.665L579.479 311.11C579.479 311.11 569.931 300.817 569.443 287.592C569.443 287.592 566.505 275.586 568.954 272.405C568.954 272.405 610.323 275.833 612.772 272.894C612.772 272.894 585.601 271.668 581.439 265.052C581.439 265.052 569.443 255.497 568.954 249.128C568.883 247.933 568.508 246.775 567.866 245.765C567.223 244.755 566.333 243.926 565.281 243.355C563.616 242.407 561.705 241.981 559.796 242.13L554.268 242.512C554.268 242.512 563.816 259.414 563.327 261.638C562.839 263.862 563.816 281.727 563.816 281.727C563.816 281.727 552.768 257.962 547.905 255.27C543.043 252.578 537.374 241.499 537.374 241.499L538.351 235.903" fill="black"/>
<path opacity="0.1" d="M565.769 279.042L566.258 283.696L558.67 283.207L551.083 276.591L543.496 255.27L538.612 247.669L534.939 243.015L536.411 237.349C536.411 237.349 537.084 237.936 538.216 238.801L537.876 240.734C537.876 240.734 543.539 251.799 548.401 254.498C553.263 257.197 564.311 280.955 564.311 280.955C564.311 280.955 563.335 263.069 563.823 260.866C564.156 259.371 559.867 251.112 557.078 245.948C557.373 245.873 557.664 245.781 557.949 245.672L567.496 262.084L565.769 279.042Z" fill="black"/>
<path opacity="0.1" d="M612.368 278.858L609.834 279.028V272.901L613.161 272.299C612 273.836 612.043 276.556 612.368 278.858Z" fill="black"/>
<path d="M538.358 235.181C538.358 235.181 534.444 235.889 531.747 241.797C529.681 246.316 522.688 251.006 519.567 252.897C518.971 253.261 518.455 253.74 518.047 254.307C517.64 254.874 517.351 255.517 517.196 256.198C516.566 258.989 516.325 264.195 519.751 271.682C525.137 283.441 529.051 288.584 529.051 288.584C529.051 288.584 530.027 300.342 528.562 303.771C527.097 307.199 528.562 326.063 528.562 326.063C528.562 326.063 554.261 330.965 562.832 326.063C571.403 321.161 570.179 302.298 570.179 302.298C570.179 302.298 578.247 319.418 581.191 319.943L579.479 310.387C579.479 310.387 569.931 300.095 569.443 286.87C569.443 286.87 566.505 274.863 568.954 271.682C568.954 271.682 578.502 281.975 589.274 281.727C597.124 281.68 604.969 282.089 612.772 282.952C612.772 282.952 610.323 275.111 612.772 272.171C612.772 272.171 585.601 270.946 581.439 264.33C581.439 264.33 569.443 254.774 568.954 248.406C568.883 247.21 568.508 246.053 567.866 245.043C567.223 244.032 566.333 243.203 565.281 242.633C563.616 241.685 561.705 241.258 559.796 241.407L554.268 241.79C554.268 241.79 563.816 258.691 563.327 260.915C562.839 263.14 563.816 281.004 563.816 281.004C563.816 281.004 552.768 257.225 547.905 254.533C543.043 251.841 537.374 240.791 537.374 240.791L538.351 235.195" fill="#C48C96"/>
<path opacity="0.1" d="M532.951 260.901C532.951 260.901 538.825 280.735 542.251 283.193C545.676 285.651 566.484 298.14 572.606 295.2C572.606 295.2 574.079 302.553 571.899 304.267C571.899 304.267 549.073 303.374 548.889 303.289C548.889 303.289 533.956 301.327 531.507 293.981C529.058 286.636 526.121 274.148 526.121 274.148L532.951 260.901Z" fill="black"/>
<path d="M564.304 283.321C564.777 283.321 565.161 282.772 565.161 282.095C565.161 281.419 564.777 280.87 564.304 280.87C563.831 280.87 563.448 281.419 563.448 282.095C563.448 282.772 563.831 283.321 564.304 283.321Z" fill="#BA7855"/>
<path d="M566.746 291.892C567.219 291.892 567.602 291.343 567.602 290.666C567.602 289.99 567.219 289.441 566.746 289.441C566.273 289.441 565.89 289.99 565.89 290.666C565.89 291.343 566.273 291.892 566.746 291.892Z" fill="#BA7855"/>
<g opacity="0.1">
<path opacity="0.1" d="M530.282 325.794C530.282 325.794 528.81 306.93 530.282 303.502C531.754 300.073 530.771 288.315 530.771 288.315C530.771 288.315 526.857 283.172 521.471 271.413C518.038 263.926 518.286 258.72 518.916 255.929C519.07 255.248 519.36 254.605 519.767 254.038C520.175 253.471 520.691 252.992 521.287 252.628C524.408 250.715 531.393 246.047 533.467 241.528C534.989 238.213 536.893 236.534 538.266 235.698L538.358 235.16C538.358 235.16 534.444 235.868 531.747 241.776C529.681 246.295 522.688 250.984 519.567 252.876C518.971 253.239 518.455 253.719 518.047 254.286C517.64 254.853 517.351 255.496 517.196 256.177C516.566 258.967 516.325 264.174 519.751 271.661C525.137 283.42 529.051 288.563 529.051 288.563C529.051 288.563 530.027 300.321 528.562 303.75C527.097 307.178 528.562 326.042 528.562 326.042C528.562 326.042 546.922 329.541 557.779 327.664C546.815 328.974 530.282 325.794 530.282 325.794Z" fill="black"/>
<path opacity="0.1" d="M563.32 260.901C562.988 262.41 563.32 271.286 563.596 276.726C564.778 279.141 565.521 280.749 565.521 280.749C565.521 280.749 564.545 262.863 565.033 260.66C565.5 258.535 556.901 243.192 556.045 241.677L554.261 241.797C554.261 241.797 563.816 258.698 563.32 260.901Z" fill="black"/>
<path opacity="0.1" d="M590.987 281.479C580.215 281.727 570.667 271.435 570.667 271.435C570.381 271.834 570.172 272.283 570.051 272.759C572.882 275.394 580.668 281.918 589.274 281.72C597.124 281.673 604.969 282.082 612.772 282.945C612.772 282.945 612.722 282.782 612.644 282.506C605.45 281.762 598.219 281.419 590.987 281.479Z" fill="black"/>
<path opacity="0.1" d="M571.877 302.057C571.877 302.057 571.976 303.587 571.92 305.882C574.468 310.939 579.103 319.588 581.177 319.936L580.816 317.924C577.256 313.447 571.877 302.057 571.877 302.057Z" fill="black"/>
</g>
<path d="M578.743 299.585L573.541 300.683L569.436 301.547L571.637 295.42L573.173 295.037L575.558 294.442C575.558 294.442 578.983 277.293 585.841 278.518C592.7 279.744 578.743 299.585 578.743 299.585Z" fill="#714B4F"/>
<path opacity="0.1" d="M573.548 300.704L569.443 301.568L571.644 295.441L573.18 295.058C573.52 296.92 573.643 298.814 573.548 300.704Z" fill="black"/>
<path d="M532.951 260.413C532.951 260.413 538.825 280.247 542.251 282.705C545.676 285.163 566.484 297.651 572.606 294.711C572.606 294.711 574.079 302.064 571.899 303.778C571.899 303.778 549.073 302.886 548.889 302.801C548.889 302.801 533.956 300.838 531.507 293.493C529.058 286.147 526.121 273.659 526.121 273.659L532.951 260.413Z" fill="#C48C96"/>
<path opacity="0.1" d="M540.311 228.565C540.311 228.565 539.816 230.485 539.15 233.276C540.506 235.845 542.668 237.897 545.305 239.113C547.942 240.329 550.905 240.643 553.737 240.005C553.15 237.49 553.277 234.947 554.997 232.978L540.311 228.565Z" fill="black"/>
<path d="M550.595 239.835C557.897 239.835 563.816 233.911 563.816 226.603C563.816 219.295 557.897 213.371 550.595 213.371C543.293 213.371 537.374 219.295 537.374 226.603C537.374 233.911 543.293 239.835 550.595 239.835Z" fill="#714B4F"/>
<path opacity="0.1" d="M562.075 222.962C563.032 223.229 564.036 223.292 565.019 223.146C566.038 222.87 566.938 222.269 567.585 221.434C568.231 220.6 568.588 219.576 568.6 218.52C568.582 217.464 568.327 216.426 567.856 215.481C567.384 214.536 566.708 213.708 565.875 213.059C564.757 212.124 563.419 211.465 562.393 210.424C561.183 209.184 560.518 207.527 559.562 206.068C557.988 203.655 555.654 201.837 552.93 200.904C550.906 200.195 548.422 200.139 546.865 201.612C546.065 202.37 545.598 203.454 544.706 204.098C543.411 205.019 541.656 204.75 540.078 204.934C538.648 205.152 537.293 205.718 536.133 206.582C534.973 207.447 534.043 208.584 533.425 209.893C532.217 212.562 531.986 215.571 532.773 218.393C533.078 219.597 533.531 220.759 533.856 221.935C534.564 224.428 534.706 227.042 535.498 229.5C536.291 231.958 537.926 234.366 540.403 235.103C540.208 232.344 540.753 229.583 541.981 227.106C542.184 226.564 542.583 226.119 543.1 225.859C543.541 225.746 544.003 225.746 544.444 225.859C547.549 226.319 550.716 225.677 553.398 224.046C554.339 223.479 555.804 221.524 556.802 221.333C558.09 221.113 560.73 222.664 562.075 222.962Z" fill="black"/>
<path d="M562.075 222.473C563.032 222.741 564.036 222.803 565.019 222.657C566.038 222.381 566.938 221.78 567.585 220.946C568.231 220.111 568.588 219.088 568.6 218.032C568.582 216.976 568.327 215.937 567.856 214.992C567.384 214.047 566.708 213.22 565.875 212.57C564.757 211.635 563.419 210.976 562.393 209.935C561.183 208.696 560.518 207.038 559.562 205.579C557.988 203.166 555.654 201.348 552.93 200.415C550.906 199.707 548.422 199.65 546.865 201.123C546.065 201.881 545.598 202.965 544.706 203.61C543.411 204.53 541.656 204.261 540.078 204.445C538.648 204.663 537.293 205.229 536.133 206.094C534.973 206.958 534.043 208.095 533.425 209.404C532.217 212.073 531.986 215.082 532.773 217.904C533.078 219.108 533.531 220.27 533.856 221.446C534.564 223.939 534.706 226.553 535.498 229.011C536.291 231.469 537.926 233.878 540.403 234.614C540.213 231.856 540.763 229.098 541.996 226.624C542.198 226.082 542.597 225.637 543.114 225.377C543.555 225.264 544.017 225.264 544.459 225.377C547.563 225.837 550.73 225.195 553.412 223.564C554.353 222.997 555.818 221.042 556.816 220.851C558.09 220.624 560.73 222.176 562.075 222.473Z" fill="#503F43"/>
<path d="M693.966 178.803L683.18 299.719L634.698 313.178L586.351 299.719L575.579 178.803H693.966Z" fill="#E44D26"/>
<path d="M634.769 302.893L673.943 292.026L683.144 188.692H634.769V302.893Z" fill="#F16529"/>
<path d="M613.805 218.357H634.769V203.525H597.611L597.965 207.505L601.61 248.378H634.776V233.545H615.164L613.805 218.357ZM617.174 255.794H602.311L604.385 279.085L634.705 287.543H634.776V272.065H634.712L618.207 267.602L617.174 255.794Z" fill="#EBEBEB"/>
<path d="M586.599 145.935H594.129V153.38H601.016V145.935H608.546V168.489H601.016V160.938H594.129V168.489H586.599V145.935ZM618.448 153.416H611.816V145.935H632.61V153.416H625.978V168.489H618.455V153.416H618.448ZM635.915 145.935H643.772L648.606 153.862L653.432 145.935H661.289V168.489H653.786V157.311L648.606 165.33H648.478L643.29 157.311V168.489H635.915V145.935ZM665.033 145.935H672.563V161.03H683.18V168.482H665.054V145.935H665.033Z" fill="black"/>
<path d="M634.719 248.378H652.965L651.245 267.616L634.719 272.079V287.543L665.103 279.113L665.323 276.606L668.805 237.554L669.166 233.573H634.719V248.406V248.378ZM634.719 218.322V218.357H670.518L670.815 215.021L671.523 207.498L671.877 203.517H634.719V218.315V218.322Z" fill="white"/>
<path d="M259.557 268.07C258.177 264.025 256.188 258.861 254.602 257.685C254.507 257.609 254.402 257.545 254.291 257.494H254.093V252.5L250.37 253.095C249.773 251.29 249.321 249.44 249.018 247.563C249.377 247.922 249.834 248.167 250.331 248.267C250.829 248.366 251.345 248.316 251.814 248.123C251.75 248.023 251.701 247.917 251.644 247.811L251.814 247.74C251.228 246.705 250.918 245.537 250.915 244.347C250.946 243.262 251.12 242.185 251.432 241.145C252.097 238.843 253.222 236.69 253.852 234.381C254.255 232.889 254.445 231.349 254.418 229.805C254.438 227.188 253.841 224.604 252.677 222.261C252.389 221.586 251.936 220.994 251.361 220.539C250.837 220.249 250.299 219.986 249.747 219.753C248.824 219.131 248.029 218.337 247.405 217.415C244.761 214.194 241.221 211.83 237.234 210.622C236.196 210.237 235.071 210.148 233.985 210.367C231.487 211.076 230.574 214.143 228.55 215.765C226.759 217.182 224.303 217.345 222.067 217.826C219.771 218.217 217.657 219.326 216.03 220.993C214.971 222.204 214.394 223.762 214.409 225.37C214.348 226.121 214.48 226.875 214.794 227.559C215.108 228.244 215.591 228.837 216.199 229.28C216.891 229.736 217.675 230.032 218.495 230.149C219.315 230.265 220.15 230.198 220.941 229.953C220.323 232.09 220.153 234.331 220.441 236.537C220.73 238.742 221.47 240.864 222.617 242.77C223.763 244.675 225.29 246.323 227.103 247.61C228.916 248.897 230.974 249.795 233.15 250.248L233.589 251.027C234.928 253.525 235.943 256.184 236.611 258.939C233.186 260.887 229.442 262.708 227.184 262.878C227.094 263.761 226.931 264.635 226.695 265.492C226.168 267.641 225.153 269.641 223.73 271.335C220.658 274.792 206.836 300.931 206.836 300.931C206.836 300.931 206.397 301.972 205.689 303.764C197.104 304.819 183.097 306.342 179.184 305.556L163.825 290.95C163.825 290.95 158.871 294.739 159.296 299.344L156.528 296.709C156.528 296.709 141.934 307.851 164.979 315.126L200.041 319.199C196.701 329.286 193.586 341.023 194.549 347.413H194.839C195.51 347.412 196.179 347.36 196.842 347.257L196.778 348.39L193.402 408.905C193.402 408.905 192.631 420.047 203 425.048C203 425.048 215.676 462.329 210.679 466.558C210.679 466.558 211.273 466.87 212.271 467.309L201.846 476.518C201.846 476.518 194.167 478.437 189.942 478.055C189.199 477.953 188.445 478.129 187.824 478.548C187.202 478.968 186.757 479.601 186.573 480.328C186.573 480.406 186.573 480.484 186.53 480.569V480.669C186.53 480.746 186.53 480.831 186.53 480.916C186.53 481.001 186.53 480.98 186.53 481.009C186.53 481.037 186.53 481.15 186.53 481.221V481.313C186.53 481.398 186.53 481.476 186.58 481.561V481.653C186.603 481.743 186.632 481.83 186.665 481.915V482C186.7 482.085 186.742 482.17 186.785 482.255V482.312C186.834 482.397 186.884 482.482 186.941 482.567L186.99 482.638C187.051 482.727 187.12 482.817 187.195 482.907L187.252 482.978C187.33 483.07 187.415 483.155 187.507 483.247H187.549L187.832 483.488L187.896 483.537L188.243 483.785L188.328 483.842L188.731 484.076H188.795L189.227 484.288H189.29L189.793 484.494L189.899 484.536L190.458 484.72H190.55L191.152 484.876H191.201L191.909 485.011H192.044L192.751 485.117H192.886L193.7 485.195C195.278 485.315 197.408 485.358 199.871 485.351C199.871 485.351 199.871 485.414 199.871 485.443C199.871 485.471 199.871 485.584 199.871 485.655V485.747C199.871 485.832 199.871 485.91 199.921 485.995V486.087C199.945 486.177 199.973 486.264 200.006 486.349V486.435C200.041 486.52 200.084 486.605 200.126 486.69V486.746C200.176 486.831 200.225 486.916 200.282 487.001L200.331 487.072C200.393 487.162 200.461 487.251 200.537 487.341L200.593 487.412C200.671 487.504 200.756 487.589 200.848 487.681H200.883L201.167 487.922L201.23 487.972L201.577 488.22L201.662 488.276L202.058 488.51H202.122L202.554 488.723H202.617L203.12 488.928L203.226 488.97L203.785 489.155H203.877L204.479 489.31H204.528L205.236 489.445H205.371L206.078 489.551H206.213L207.027 489.629C217.013 490.401 248.884 488.092 248.884 488.092V488V487.887C249.202 486.399 250.731 477.75 245.295 471.354C245.458 471.184 245.614 471.007 245.763 470.822C245.763 470.822 241.516 463.519 243.845 461.217C246.173 458.915 232.598 419.297 232.598 419.297C232.598 419.297 225.301 407.765 229.527 394.695C233.752 381.626 229.144 367.41 229.144 367.41C229.144 367.41 239.23 364.42 239.414 352.003C239.414 351.627 239.414 351.238 239.414 350.848C239.625 350.879 239.838 350.893 240.051 350.891C240.192 350.901 240.334 350.901 240.476 350.891C240.476 350.891 238.558 343.97 240.858 338.976C243.158 333.982 248.155 338.594 252.762 318.221C256.096 303.481 259.026 286.53 260.399 278.277C260.963 274.857 260.674 271.351 259.557 268.07V268.07ZM171.922 311.28L168.419 307.95C169.579 308.432 170.867 308.9 172.304 309.367L185.504 310.918C179.615 311.45 174.116 311.747 171.922 311.301V311.28Z" fill="url(#paint1_linear)"/>
<path d="M205.35 309.339C205.35 309.339 178.186 313.114 172.524 311.981L157.434 297.63C157.434 297.63 143.095 308.581 165.736 315.756L207.989 320.665L205.35 309.339Z" fill="#FDC2CC"/>
<path opacity="0.05" d="M205.35 309.339C205.35 309.339 178.186 313.114 172.524 311.981L157.434 297.63C157.434 297.63 143.095 308.581 165.736 315.756L207.989 320.665L205.35 309.339Z" fill="black"/>
<path d="M152.176 318.866L93.4739 302.574L80.3945 155.732H224.134L211.04 302.553L152.176 318.866Z" fill="#264DE4"/>
<path d="M199.829 293.209L211.019 167.746H152.275V306.378L199.829 293.209Z" fill="#2965F1"/>
<path d="M110.418 222.183L112.031 240.189H152.303V222.183H110.418ZM107.176 185.731L108.811 203.737H152.296V185.731H107.141H107.176ZM152.296 268.955H152.218L132.174 263.536L130.893 249.171H112.796L115.315 277.449L152.175 287.713H152.26L152.296 268.955Z" fill="#EBEBEB"/>
<path d="M114.225 115.809H136.017V124.933H123.334V134.056H136.017V143.18H114.225V115.809ZM140.412 115.809H162.204V123.743H149.493V125.329H162.176V143.576H140.377V135.246H153.06V133.66H140.377V115.809H140.412ZM166.6 115.809H188.392V123.743H175.645V125.329H188.328V143.576H166.529V135.246H179.212V133.66H166.529V115.809H166.6Z" fill="black"/>
<path d="M194.032 222.183L197.281 185.731H152.176V203.737H177.535L175.9 222.154H152.176V240.161H174.335L172.212 263.536L152.176 268.97V287.706L189.064 277.47L189.333 274.424L193.579 227.007L194.018 222.168L194.032 222.183Z" fill="white"/>
<path d="M215.166 462.641L201.959 474.343C201.959 474.343 194.415 476.234 190.267 475.852C186.12 475.469 184.23 482.269 194.04 483.027C203.849 483.785 235.16 481.519 235.16 481.519C235.16 481.519 238.175 469.434 229.123 462.641H215.166Z" fill="#47465A"/>
<path opacity="0.05" d="M215.166 462.641L201.959 474.343C201.959 474.343 194.415 476.234 190.267 475.852C186.12 475.469 184.23 482.269 194.04 483.027C203.849 483.785 235.16 481.519 235.16 481.519C235.16 481.519 238.175 469.434 229.123 462.641H215.166Z" fill="black"/>
<path opacity="0.3" d="M235.628 476.298C235.605 477.675 235.446 479.046 235.153 480.392C235.153 480.392 203.842 482.659 194.033 481.901C189.312 481.54 187.309 479.776 186.955 478.09C186.523 480.031 188.236 482.588 194.033 483.049C203.842 483.806 235.153 481.54 235.153 481.54C235.522 479.818 235.681 478.058 235.628 476.298Z" fill="white"/>
<path d="M230.624 248.583C230.624 248.583 238.926 260.285 235.903 268.219C232.881 276.152 251.75 259.91 251.75 259.91C251.75 259.91 245.713 249.291 248.735 237.958L230.624 248.583Z" fill="#FDC2CC"/>
<path d="M228.359 467.174L215.166 478.876C215.166 478.876 207.621 480.768 203.474 480.385C199.326 480.003 197.437 486.803 207.246 487.561C217.056 488.319 248.367 486.052 248.367 486.052C248.367 486.052 251.382 473.967 242.33 467.174H228.359Z" fill="#47465A"/>
<path d="M232.152 464.532C230.185 466.962 227.41 467.897 224.509 468.038C217.912 468.35 210.651 464.532 210.651 464.532C215.555 460.381 203.106 423.752 203.106 423.752C192.921 418.843 193.672 407.892 193.672 407.892L196.97 348.461L197.805 333.529L208.372 327.111L216.695 333.486L224.594 339.55C225.108 341.479 225.44 343.452 225.584 345.443C226.505 359.32 215.541 362.586 215.541 362.586C215.541 362.586 220.071 376.554 215.916 389.397C211.762 402.239 218.932 413.566 218.932 413.566C218.932 413.566 232.513 452.837 230.256 455.104C227.998 457.371 232.152 464.532 232.152 464.532Z" fill="#565171"/>
<path opacity="0.05" d="M232.152 464.532C230.185 466.962 227.41 467.897 224.509 468.038C217.912 468.35 210.651 464.532 210.651 464.532C215.555 460.381 203.106 423.752 203.106 423.752C192.921 418.843 193.672 407.892 193.672 407.892L196.97 348.461L197.805 333.529L208.372 327.111L216.695 333.486L224.594 339.55C225.108 341.479 225.44 343.452 225.584 345.443C226.505 359.32 215.541 362.586 215.541 362.586C215.541 362.586 220.071 376.554 215.916 389.397C211.762 402.239 218.932 413.566 218.932 413.566C218.932 413.566 232.513 452.837 230.256 455.104C227.998 457.371 232.152 464.532 232.152 464.532Z" fill="black"/>
<path d="M245.338 469.059C238.926 476.985 223.836 469.059 223.836 469.059C224.14 468.778 224.367 468.425 224.494 468.031C227.262 460.502 215.159 424.503 215.159 424.503C204.974 419.594 203.835 407.892 203.835 407.892L201.167 347.384L200.82 339.55L216.695 333.486L221.571 331.623L237.814 344.083C238.512 346.665 238.855 349.329 238.834 352.003C238.628 364.194 228.741 367.14 228.741 367.14C228.741 367.14 233.271 381.109 229.116 393.952C224.962 406.794 232.152 418.085 232.152 418.085C232.152 418.085 245.734 457.357 243.477 459.623C241.219 461.89 245.338 469.059 245.338 469.059Z" fill="#565171"/>
<path opacity="0.1" d="M238.834 352.003C235.571 351.535 228.968 347.604 225.577 345.472C224.282 344.657 223.454 344.112 223.454 344.112C223.454 344.112 220.057 334.669 211.005 341.845C208.06 344.239 204.734 346.121 201.167 347.413C199.804 347.896 198.399 348.249 196.97 348.468L197.805 333.536L208.372 327.118L216.695 333.494L221.571 331.631L237.815 344.083C238.512 346.665 238.855 349.329 238.834 352.003V352.003Z" fill="black"/>
<path d="M259.252 279.545C257.908 287.649 255.006 304.338 251.75 318.781C247.221 338.792 242.316 334.259 240.058 339.167C237.8 344.076 239.683 350.87 239.683 350.87C235.911 351.245 223.461 342.943 223.461 342.943C223.461 342.943 220.064 333.501 211.011 340.676C201.959 347.852 194.79 347.469 194.79 347.469C192.9 335.009 206.864 301.781 206.864 301.781C206.864 301.781 220.446 276.103 223.461 272.738C224.86 271.075 225.858 269.111 226.377 267C226.609 266.16 226.77 265.303 226.858 264.436C231.763 264.061 243.844 255.752 243.844 255.752L253.279 254.243V259.152C253.391 259.202 253.495 259.266 253.59 259.343C255.14 260.526 257.129 265.569 258.453 269.543C259.536 272.761 259.811 276.196 259.252 279.545Z" fill="#E1A0A7"/>
<path d="M215.166 315.005L210.29 314.439L172.913 310.097C150.265 302.921 164.611 291.97 164.611 291.97L179.7 306.321C184.053 307.192 201.131 305.159 208.782 304.196C211.075 303.898 212.526 303.7 212.526 303.7L215.166 315.005Z" fill="#FDC2CC"/>
<path opacity="0.1" d="M251.75 264.032C251.75 264.032 241.941 256.106 227.198 281.777C212.455 307.447 209.086 303.296 209.086 303.296C209.086 303.296 212.101 314.63 210.594 316.89C210.594 316.89 220.779 316.132 224.551 316.89C228.323 317.648 251.715 288.194 251.715 288.194C251.715 288.194 263.825 271.583 251.75 264.032Z" fill="black"/>
<path opacity="0.1" d="M251.375 262.523C251.375 262.523 241.566 254.597 226.851 280.268C212.137 305.939 208.74 301.788 208.74 301.788C208.74 301.788 220.432 314.623 224.204 315.381C227.977 316.139 251.368 286.685 251.368 286.685C251.368 286.685 263.45 270.075 251.375 262.523Z" fill="black"/>
<path opacity="0.1" d="M210.283 314.46C210.438 311.662 209.384 306.746 208.775 304.196C211.068 303.898 212.519 303.7 212.519 303.7L215.159 315.034L210.283 314.46Z" fill="black"/>
<path d="M251.75 263.274C251.75 263.274 241.941 255.348 227.198 281.026C212.455 306.704 209.086 302.546 209.086 302.546C209.086 302.546 212.101 313.879 210.594 316.139C210.594 316.139 220.779 315.381 224.551 316.139C228.323 316.897 251.715 287.443 251.715 287.443C251.715 287.443 263.825 270.825 251.75 263.274Z" fill="#E1A0A7"/>
<path opacity="0.1" d="M249.139 238.73L230.999 249.291C231.766 250.406 232.475 251.56 233.122 252.748C234.166 252.96 235.228 253.067 236.293 253.067C241.127 253.067 243.37 247.988 246.293 244.567C246.081 241.847 248.304 241.776 249.139 238.73Z" fill="black"/>
<path d="M235.904 252.33C244.656 252.33 251.75 245.229 251.75 236.47C251.75 227.711 244.656 220.61 235.904 220.61C227.152 220.61 220.057 227.711 220.057 236.47C220.057 245.229 227.152 252.33 235.904 252.33Z" fill="#FDC2CC"/>
<path opacity="0.1" d="M215.874 223.642C217.472 222.002 219.548 220.911 221.805 220.525C224.006 220.051 226.419 219.909 228.175 218.499C230.164 216.905 231.055 213.874 233.511 213.194C234.578 212.98 235.684 213.068 236.703 213.449C240.621 214.634 244.099 216.956 246.697 220.121C247.311 221.03 248.095 221.811 249.004 222.423C249.546 222.653 250.075 222.91 250.589 223.196C251.153 223.644 251.596 224.226 251.878 224.889C253.646 228.463 254.053 232.56 253.024 236.413C252.408 238.687 251.304 240.798 250.646 243.065C249.988 245.332 249.825 247.896 251.021 249.922C249.861 250.517 248.395 249.766 247.666 248.682C246.937 247.598 246.718 246.267 246.336 245.013C245.584 242.552 244.169 240.346 242.245 238.638C241.056 237.589 238.933 236.881 238.105 238.234C237.786 238.758 237.807 239.431 237.531 239.977C236.993 241.046 235.408 241.259 234.396 240.685C233.399 239.996 232.699 238.957 232.435 237.774C230.885 232.51 228.231 229.202 222.612 231.448C220.488 232.284 218.047 232.865 216.03 231.448C213.446 229.55 213.963 225.788 215.874 223.642Z" fill="black"/>
<path d="M215.874 223.259C217.472 221.619 219.548 220.528 221.805 220.143C224.006 219.668 226.419 219.526 228.175 218.117C230.164 216.523 231.055 213.491 233.511 212.811C234.578 212.598 235.684 212.686 236.703 213.066C240.621 214.251 244.099 216.574 246.697 219.739C247.311 220.647 248.095 221.429 249.004 222.041C249.546 222.27 250.075 222.528 250.589 222.813C251.153 223.261 251.596 223.843 251.878 224.506C253.646 228.081 254.053 232.177 253.024 236.031C252.408 238.305 251.304 240.416 250.646 242.682C249.988 244.949 249.825 247.513 251.021 249.539C249.861 250.134 248.395 249.384 247.666 248.3C246.937 247.216 246.718 245.884 246.336 244.63C245.584 242.169 244.169 239.963 242.245 238.255C241.056 237.207 238.933 236.499 238.105 237.851C237.786 238.376 237.807 239.049 237.531 239.594C236.993 240.664 235.408 240.876 234.396 240.302C233.399 239.614 232.699 238.574 232.435 237.391C230.885 232.128 228.231 228.82 222.612 231.065C220.488 231.901 218.047 232.482 216.03 231.065C213.446 229.174 213.963 225.413 215.874 223.259Z" fill="#8F5A6A"/>
<path opacity="0.05" d="M253.569 259.315H245.904C245.904 259.315 230.815 266.866 230.439 266.49C230.185 266.235 227.849 266.674 226.37 266.979C226.601 266.139 226.762 265.281 226.851 264.415C231.756 264.039 243.837 255.73 243.837 255.73L253.272 254.221V259.13C253.378 259.179 253.478 259.241 253.569 259.315V259.315Z" fill="black"/>
<path opacity="0.3" d="M248.827 480.824C248.805 482.201 248.646 483.573 248.353 484.919C248.353 484.919 217.042 487.185 207.232 486.427C202.511 486.066 200.509 484.302 200.155 482.616C199.723 484.557 201.436 487.115 207.232 487.575C217.042 488.333 248.353 486.066 248.353 486.066C248.722 484.344 248.881 482.584 248.827 480.824Z" fill="white"/>
<g opacity="0.05">
<path opacity="0.05" d="M207.423 340.301C202.334 344.338 197.833 345.968 194.875 346.676C194.875 346.959 194.931 347.236 194.974 347.505C194.974 347.505 202.143 347.88 211.195 340.712C212.598 339.509 214.256 338.641 216.044 338.176C214.069 337.205 211.252 337.269 207.423 340.301Z" fill="black"/>
<path opacity="0.05" d="M258.622 269.508C257.271 265.534 255.31 260.498 253.76 259.307C253.665 259.231 253.56 259.166 253.449 259.116C253.449 259.116 250.327 259.222 250.434 259.307C251.984 260.49 253.498 265.158 254.85 269.125C255.945 272.35 256.228 275.796 255.671 279.156C254.326 287.259 251.424 303.948 248.169 318.391C243.639 338.402 238.734 333.869 236.477 338.778C234.622 342.801 235.549 348.086 235.953 349.864C237.173 350.475 238.51 350.815 239.874 350.862C239.874 350.862 237.984 344.069 240.249 339.16C242.514 334.251 247.419 338.785 251.941 318.774C255.218 304.295 258.099 287.606 259.443 279.538C260 276.178 259.718 272.732 258.622 269.508V269.508Z" fill="black"/>
</g>
<path d="M302.468 340.039C303.766 338.98 304.711 337.553 305.179 335.944C305.533 334.315 304.839 332.367 303.282 331.772C301.541 331.106 299.68 332.311 298.271 333.536C296.863 334.761 295.242 336.15 293.395 335.888C294.344 335.026 295.055 333.934 295.456 332.716C295.858 331.498 295.938 330.197 295.688 328.939C295.608 328.417 295.388 327.928 295.051 327.522C294.081 326.488 292.333 326.934 291.173 327.749C287.492 330.341 286.466 335.342 286.445 339.847C286.077 338.225 286.388 336.532 286.374 334.889C286.36 333.246 285.907 331.347 284.505 330.483C283.636 330.016 282.661 329.784 281.674 329.81C280.018 329.746 278.178 329.916 277.046 331.128C275.63 332.629 276.005 335.158 277.23 336.794C278.454 338.431 280.308 339.486 282.021 340.634C283.394 341.451 284.565 342.567 285.447 343.899C285.55 344.084 285.636 344.279 285.702 344.48H296.07C298.393 343.295 300.546 341.801 302.468 340.039V340.039Z" fill="#6C63FF"/>
<path d="M321.514 473.047C323.163 471.509 324.713 469.696 325.195 467.493C325.676 465.29 324.734 462.641 322.625 461.826C320.269 460.92 317.742 462.535 315.831 464.213C313.92 465.892 311.726 467.755 309.227 467.401C310.514 466.233 311.477 464.751 312.021 463.1C312.566 461.449 312.674 459.685 312.334 457.98C312.225 457.276 311.926 456.615 311.471 456.067C310.162 454.651 307.784 455.267 306.219 456.372C301.265 459.914 299.85 466.664 299.814 472.77C299.312 470.567 299.736 468.272 299.722 466.013C299.708 463.753 299.092 461.252 297.188 460.034C296.003 459.396 294.67 459.083 293.324 459.127C291.08 459.042 288.582 459.269 287.053 460.912C285.149 462.953 285.638 466.374 287.301 468.619C288.964 470.865 291.477 472.274 293.791 473.826C295.649 474.934 297.234 476.447 298.427 478.253C298.569 478.505 298.685 478.771 298.774 479.046H312.837C315.986 477.447 318.905 475.429 321.514 473.047V473.047Z" fill="#6C63FF"/>
</g>
<defs>
<linearGradient id="paint0_linear" x1="569.138" y1="436.899" x2="569.138" y2="197.086" gradientUnits="userSpaceOnUse">
<stop stop-color="#808080" stop-opacity="0.25"/>
<stop offset="0.54" stop-color="#808080" stop-opacity="0.12"/>
<stop offset="1" stop-color="#808080" stop-opacity="0.1"/>
</linearGradient>
<linearGradient id="paint1_linear" x1="41084" y1="217428" x2="41084" y2="106952" gradientUnits="userSpaceOnUse">
<stop stop-color="#808080" stop-opacity="0.25"/>
<stop offset="0.54" stop-color="#808080" stop-opacity="0.12"/>
<stop offset="1" stop-color="#808080" stop-opacity="0.1"/>
</linearGradient>
<clipPath id="clip0">
<rect width="729" height="517" fill="white"/>
</clipPath>
</defs>
</svg>
